# Blender v2.79 (sub 0) OBJ File: 'solar.blend'
# www.blender.org
mtllib solar.mtl
o Cube_Cube.001
v -0.250000 8.000000 1.000001
v -0.250000 8.000000 -0.999999
v -0.250000 -8.000000 0.999999
v -0.250000 -8.000000 -1.000001
v 0.250000 8.000000 1.000001
v 0.250000 8.000000 -0.999999
v 0.250000 -8.000000 0.999999
v 0.250000 -8.000000 -1.000001
v 0.250000 8.000000 -0.999999
v 0.250000 -8.000000 -1.000001
v 0.250000 8.000000 -0.999999
v 0.250000 -8.000000 -1.000001
vt 0.344913 0.004989
vt 0.654054 0.314129
vt 0.344913 0.314129
vt 0.446229 -1.034441
vt -0.016622 -0.698634
vt 0.443996 -1.035186
vt 0.342975 0.317634
vt 0.033834 0.008493
vt 0.342975 0.008493
vt 0.906816 -1.373347
vt 0.443965 -1.037540
vt 0.198606 -1.373347
vt 0.691588 -0.698634
vt 0.438196 0.644833
vt 0.001205 0.637207
vt 0.438196 0.637207
vt 0.001205 0.629580
vt 0.438196 0.629580
vt 0.654054 0.004989
vt 0.033834 0.317634
vt 0.446198 -1.036795
vt 0.001205 0.644833
vn -1.0000 0.0000 0.0000
vn 0.0000 -1.0000 0.0000
vn 1.0000 0.0000 0.0000
vn 0.0000 1.0000 0.0000
vn 0.0000 -0.0000 1.0000
vn 0.0000 0.0000 -1.0000
usemtl Panel
s off
f 2/1/1 3/2/1 1/3/1
f 4/4/2 7/5/2 3/6/2
f 8/7/3 5/8/3 7/9/3
f 6/10/4 1/11/4 5/12/4
f 7/5/5 1/11/5 3/6/5
f 4/4/6 6/10/6 8/13/6
f 8/14/5 9/15/5 10/16/5
f 10/16/5 11/17/5 12/18/5
f 2/1/1 4/19/1 3/2/1
f 4/4/2 8/13/2 7/5/2
f 8/7/3 6/20/3 5/8/3
f 6/10/4 2/21/4 1/11/4
f 7/5/5 5/12/5 1/11/5
f 4/4/6 2/21/6 6/10/6
f 8/14/5 6/22/5 9/15/5
f 10/16/5 9/15/5 11/17/5
